<svg id="Layer_1" data-name="Layer 1" xmlns="http://www.w3.org/2000/svg" viewBox="0 0 252.1 166.06"><defs><style>.cls-1{fill:#fff;}</style></defs><title>RD_logo_wit</title><path class="cls-1" d="M173.68,0H130.2V142H109.36L83.51,96.88c19.91-6.94,33.22-22.4,33.22-47.56C116.73,12.19,90,0,55.52,0H45.7V23.61h6.77c22.74,0,35.1,6.66,35.1,25.71,0,18.73-12.36,28.27-35.1,28.27H29.7V23.7h0v-.22h0V0H0V166.06H29.7V101.21H54.24L90,166.06h33.18l0-.06h7.09v.06h45.05c47.44,0,76.85-28.75,76.85-83.79C252.1,27.39,222.69,0,173.68,0Zm-1.81,142.1H159.74V24h12.13c31.7,0,49.84,17.61,49.84,58.31C221.71,123.13,203.57,142.1,171.87,142.1Z"/></svg>